<svg version="1.1" xmlns="http://www.w3.org/2000/svg" style="display: block;" viewBox="0 0 2048 1024" width="2048" height="1024">
<path transform="translate(0,0)" fill="rgb(254,254,254)" d="M 0 0 L 2046.25 0 C 2048.75 3.75313 2047.99 9.76244 2047.99 14.1208 L 2048.02 767.612 L 2048.01 954.147 C 2048.01 967.073 2049.66 1011.74 2047.62 1020.8 C 2047.36 1021.98 2046.85 1022.96 2046.25 1024 L 0 1024 L 0 0 z"/>
<path transform="translate(0,0)" fill="rgb(28,3,17)" d="M 1346.62 536.14 C 1347.77 534.835 1348.62 533.437 1349.56 531.982 C 1352.86 526.89 1356.93 521.838 1363.24 520.622 C 1368.25 519.658 1373.1 521.436 1377.16 524.298 C 1382.44 528.012 1386.29 533.647 1387.34 540.049 C 1392.87 535.787 1393.75 526.108 1402.46 523.129 C 1407.07 521.554 1412.12 522.855 1416.42 524.784 C 1419.62 526.214 1423.59 528.983 1424.84 532.374 C 1430.3 528.685 1434.64 525.541 1441.53 525.626 C 1447 525.694 1452.65 527.191 1456.52 531.286 C 1460.46 535.457 1462.83 541.923 1462.6 547.612 C 1466.31 544.717 1468.1 540.616 1471.1 537.1 C 1474.08 533.593 1478.35 529.686 1483.25 529.621 C 1488.13 529.556 1493.13 532.923 1496.4 536.306 C 1498.59 538.576 1500.61 541.714 1500.61 544.947 C 1501.35 546.012 1502.14 546.946 1503.3 547.56 C 1506.08 549.016 1509.34 549.459 1512.31 548.483 C 1514.2 546.36 1514.04 546.028 1514.21 543.146 C 1517.36 541.496 1521.72 536.873 1523.87 534.045 C 1530.61 533.404 1536.43 533.358 1541.88 537.959 C 1546.26 541.654 1548 546.593 1549.4 551.968 C 1563.64 552.957 1596.23 551.915 1605.66 562.896 C 1610.99 569.117 1605.08 578.269 1615.56 579.272 C 1621.98 579.885 1630.37 579.009 1635.24 583.911 C 1635.74 584.828 1636.09 585.789 1636.21 586.833 C 1637.05 594.311 1620.51 657.78 1617.49 671.269 A 6785.17 6785.17 0 0 0 1588.35 805.849 L 1577.76 857.033 C 1576.12 864.678 1574.89 872.985 1572.49 880.413 C 1572.19 881.371 1571.51 882.198 1570.83 882.925 C 1588.05 882.953 1670.5 880.671 1680.55 885.199 L 1680.34 886.147 C 1668.05 888.695 1653.5 887.26 1640.88 887.241 L 1569.79 887.142 C 1571.19 891.894 1568.09 906.594 1565.44 910.954 C 1565.08 911.535 1564.69 912.068 1564.25 912.587 C 1561.07 918.371 1482.06 978.358 1470.19 986.19 C 1467.52 987.947 1464.63 989.478 1461.54 990.332 C 1461.22 990.418 1460.91 990.488 1460.59 990.567 C 1442.66 988.741 1424.73 985.096 1406.96 982.1 L 1304.02 964.5 C 1289.02 962.018 1270.47 956.701 1255.64 956.913 C 1252.8 954.465 1153.98 938.451 1140.05 936.199 C 1128.56 934.344 1100.68 932.129 1091.84 926.563 C 1088.12 921.688 1092.03 912.118 1092.16 906.256 L 1092.18 905.326 C 1091.31 902.893 1086.68 900.221 1085.06 897.807 C 1082.71 894.317 1083.45 889.314 1080.59 886.114 L 984.662 885.996 C 968.791 885.966 952.464 886.761 936.654 885.79 C 934.271 885.643 931.495 885.638 929.718 884.014 C 932.024 882.373 934.736 882.086 937.482 881.875 C 952.142 880.749 967.736 881.941 982.513 881.959 L 1080.99 882.077 C 1087.63 876.847 1091.13 860.69 1095.57 853.116 A 5901.59 5901.59 0 0 0 1189.22 688.649 A 4129.05 4129.05 0 0 1 1236.59 602.124 C 1243.83 589.095 1250.59 574.933 1258.78 562.525 C 1261.02 559.141 1265.16 558.889 1267.77 555.762 C 1272.16 550.497 1274.31 543.412 1279.62 538.86 C 1292.94 527.432 1329.4 534.864 1346.62 536.14 z"/>
<path transform="translate(0,0)" fill="rgb(254,254,254)" d="M 1477.99 535.499 C 1479.92 535.002 1481.93 534.682 1483.93 534.829 C 1487.53 535.096 1492.39 538.143 1494.58 540.933 C 1496.12 542.904 1496.2 543.754 1495.98 546.159 C 1493.47 547.902 1491.74 547.214 1488.75 547.009 C 1483.85 546.032 1478.69 546.832 1473.91 545.38 C 1473 545.102 1472.9 544.253 1472.49 543.438 C 1473.09 540.117 1475.77 537.867 1477.99 535.499 z"/>
<path transform="translate(0,0)" fill="rgb(254,254,254)" d="M 1526.45 538.498 C 1528.78 538.06 1531.05 537.786 1533.36 538.49 C 1536.32 539.388 1541.32 542.737 1542.73 545.522 C 1543.73 547.5 1543.48 547.876 1542.9 549.884 C 1539.74 551.633 1537.61 551.026 1534.05 550.846 C 1529.35 549.624 1524.59 550.273 1519.95 548.351 L 1519.33 546.671 C 1520.68 543.135 1523.69 540.931 1526.45 538.498 z"/>
<path transform="translate(0,0)" fill="rgb(254,254,254)" d="M 1362.25 525.498 C 1364.63 525.272 1366.99 525.124 1369.31 525.847 C 1373.1 527.021 1379.44 530.963 1381.15 534.652 C 1381.81 536.062 1381.39 536.542 1380.93 537.944 C 1378.14 539.61 1374.38 538.695 1371.24 538.363 C 1366.44 538.061 1356.89 538.503 1353.53 534.85 L 1353.77 532.659 C 1356.17 529.504 1358.95 527.639 1362.25 525.498 z"/>
<path transform="translate(0,0)" fill="rgb(254,254,254)" d="M 1405.11 527.499 C 1406.66 527.476 1408.23 527.475 1409.78 527.62 C 1414.71 528.082 1419.13 531.697 1422.1 535.417 C 1422.67 538.009 1422.71 537.933 1421.3 540.179 C 1418.19 542.3 1414.29 541.391 1410.75 541.031 C 1406.35 540.603 1397.38 540.985 1393.93 538.564 L 1393.95 536.789 C 1396.24 532.347 1400.51 529.19 1405.11 527.499 z"/>
<path transform="translate(0,0)" fill="rgb(254,254,254)" d="M 1437.77 529.498 C 1440.17 529.273 1442.41 529.216 1444.75 529.917 C 1448.38 531.005 1454.85 535.053 1456.56 538.578 C 1457.56 540.633 1457.26 540.999 1456.6 543.061 C 1453.22 544.711 1450.59 544.093 1446.91 543.888 C 1443.8 543.152 1440.33 543.239 1437.14 542.688 C 1434.43 542.22 1430.76 541.034 1429.21 538.589 C 1428.79 537.917 1429.32 536.493 1429.47 535.705 C 1431.83 532.851 1434.59 531.309 1437.77 529.498 z"/>
<path transform="translate(0,0)" fill="rgb(254,254,254)" d="M 1139.85 798.492 C 1145.25 798.451 1150.65 801.146 1155.25 803.814 C 1155.25 804.181 1155.28 804.833 1155.21 805.232 C 1154.3 809.944 1141.37 831.103 1137.5 834.145 C 1135.13 834.786 1125.08 830.231 1122.42 829.246 C 1122.71 829.028 1122.99 828.803 1123.26 828.563 C 1127.28 824.983 1139.5 804.203 1139.85 798.492 z"/>
<path transform="translate(0,0)" fill="rgb(254,254,254)" d="M 1242.72 611.494 C 1243.14 611.42 1243.56 611.346 1243.99 611.302 C 1248.25 610.864 1255.56 613.792 1258.81 616.435 C 1258.83 616.878 1258.9 617.613 1258.83 618.092 C 1258.04 623.354 1247.41 642.369 1242.99 645.506 C 1239.73 646.012 1230.08 641.099 1226.35 640.049 C 1226.46 639.97 1226.57 639.895 1226.69 639.811 C 1230.99 636.551 1241.8 617.147 1242.72 611.494 z"/>
<path transform="translate(0,0)" fill="rgb(254,254,254)" d="M 1183.9 719.491 C 1189.04 718.566 1195.9 721.577 1200.22 724.284 C 1200.22 724.446 1200.23 724.608 1200.23 724.769 C 1200.1 729.237 1186.21 752.468 1182.44 755.967 C 1180.89 756.72 1168.66 752.218 1166.01 751.474 C 1166.42 751.137 1166.82 750.786 1167.21 750.425 C 1171.65 746.357 1183.64 725.697 1183.9 719.491 z"/>
<path transform="translate(0,0)" fill="rgb(254,254,254)" d="M 1204.33 681.496 C 1209.23 681.417 1216.16 684.654 1220.3 687.229 C 1220.34 687.804 1220.37 688.451 1220.27 689.018 C 1219.45 693.748 1206.62 716.286 1202.56 719.507 C 1199.23 719.837 1189.65 715.407 1185.73 714.36 L 1186.16 714.006 C 1192.04 709.227 1203.04 689.254 1204.33 681.496 z"/>
<path transform="translate(0,0)" fill="rgb(254,254,254)" d="M 1119.85 834.485 C 1125.2 833.605 1130.03 836.574 1134.61 838.974 C 1134.66 839.91 1134.6 840.731 1134.29 841.63 C 1132.05 848.084 1118.71 871.186 1112.75 873.506 C 1112.05 874.18 1110.91 874.531 1110.02 874.935 C 1106.94 874.884 1105.31 874.706 1102.68 872.911 C 1098.46 862.109 1119.75 845.042 1119.85 834.485 z"/>
<path transform="translate(0,0)" fill="rgb(254,254,254)" d="M 1223.01 645.494 C 1223.96 645.301 1224.91 645.148 1225.88 645.138 C 1230.13 645.093 1237.1 647.898 1240.17 650.764 C 1240.2 651.331 1240.23 651.965 1240.13 652.525 C 1239.3 657.234 1227.19 678.98 1223.22 682.218 C 1219.55 682.953 1209.74 677.995 1205.54 676.77 C 1206.05 676.383 1206.08 676.374 1206.62 675.887 C 1210.77 672.162 1222.79 651.316 1223.01 645.494 z"/>
<path transform="translate(0,0)" fill="rgb(254,254,254)" d="M 1164.31 755.496 C 1169.18 755.703 1175.25 758.522 1179.36 761.043 C 1179.37 761.364 1179.38 761.684 1179.38 762.005 C 1179.29 766.26 1161.48 796.161 1157.88 799.504 C 1152.63 798.272 1147.32 795.269 1141.99 793.752 C 1149.84 787.358 1160.81 765.219 1164.31 755.496 z"/>
<path transform="translate(0,0)" fill="rgb(254,254,254)" d="M 1269.99 563.497 C 1275.22 562.646 1281.17 563.61 1286.46 563.966 C 1286.44 564.473 1286.45 564.982 1286.41 565.487 C 1285.88 571.038 1266.36 607.057 1261.24 611.465 C 1258.38 612.126 1249.23 607.333 1246.1 606.039 C 1250.94 602.082 1269.28 569.086 1269.99 563.497 z"/>
<path transform="translate(0,0)" fill="rgb(254,254,254)" d="M 1625.44 585.497 C 1627.02 585.4 1628.6 585.549 1630.18 585.64 C 1630.76 586.263 1631.63 586.889 1631.76 587.742 C 1632.53 592.722 1615.85 658.223 1613.7 667.743 C 1606.63 698.946 1565.13 903.737 1560.38 910.098 C 1558.75 914.5 1496.38 962.028 1489.43 965.578 C 1488.55 966.649 1488.36 966.859 1487.07 967.355 C 1491.56 957.334 1529.2 929.331 1540.23 920.533 C 1544.14 917.41 1549.5 914.41 1552.59 910.518 C 1556.66 904.651 1562.69 867.62 1564.92 857.38 A 17511.1 17511.1 0 0 1 1608.95 657.426 C 1611.91 644.371 1625.89 594.211 1625.44 585.497 z"/>
<path transform="translate(0,0)" fill="rgb(254,254,254)" d="M 1604.85 583.497 C 1605.75 583.318 1606.57 583.207 1607.49 583.168 C 1609.84 583.069 1609.85 582.976 1611.52 584.481 C 1609.35 592.76 1605.61 600.975 1602.56 608.976 C 1596.32 625.315 1589.89 641.505 1583.35 657.717 L 1524.95 802.14 L 1480.71 916.036 C 1475.31 930.113 1465.87 960.505 1458.13 971.98 C 1453.48 973.79 1447.38 973.412 1442.48 972.892 C 1413.31 969.799 1380.08 962.334 1350.83 957.325 L 1193.13 930.478 C 1162.85 925.194 1132.62 918.949 1102.23 914.45 C 1101.39 914.264 1100.62 914.047 1099.81 913.751 C 1097.33 912.843 1097.47 912.712 1096.37 910.371 L 1097.23 908.494 C 1100.58 907.414 1104.69 909.381 1108.12 910.07 C 1140.09 916.513 1172.54 921.461 1204.71 926.866 L 1327.68 947.709 L 1403.11 960.81 C 1415.23 962.909 1427.58 965.629 1439.82 966.821 C 1444.9 967.315 1450.03 967.674 1454.44 964.747 C 1463.02 951.861 1467.64 935.907 1473.18 921.521 L 1496.83 860.294 C 1507.61 832.629 1605.56 589.635 1604.85 583.497 z"/>
<path transform="translate(0,0)" fill="rgb(254,254,254)" d="M 1615.62 584.498 C 1617.07 584.37 1618.36 584.397 1619.81 584.611 C 1621.5 584.859 1621.35 584.994 1622.38 586.394 C 1619.22 600.332 1612.2 615.086 1607.2 628.535 A 5212.44 5212.44 0 0 1 1570.95 723.408 L 1522.92 844.523 C 1507.08 885.586 1492.1 927.115 1475.55 967.889 C 1473.92 971.92 1471.41 979.747 1467.87 982.328 C 1464.41 984.844 1460.93 985.66 1456.71 985.435 C 1445.86 984.857 1434.67 982.433 1423.92 980.67 C 1399.84 976.721 1375.89 972.1 1351.84 968.012 C 1267.66 953.699 1183.51 938.113 1099.16 924.952 C 1097.29 924.415 1096.04 923.967 1094.67 922.51 C 1093.52 921.276 1093.69 921.224 1093.76 919.535 L 1095.33 918.268 C 1096.69 917.163 1102.49 918.626 1104.36 918.966 L 1360.99 963.395 L 1415.75 973.036 C 1426.03 974.834 1436.75 977.462 1447.17 977.794 C 1451.33 977.927 1457.62 977.65 1460.75 974.549 C 1463.77 971.548 1465.84 966.915 1467.44 963.013 C 1487.94 912.891 1506.19 861.589 1526.02 811.164 C 1536.85 783.65 1615.89 594.551 1615.62 584.498 z"/>
<path transform="translate(0,0)" fill="rgb(254,254,254)" d="M 1295.4 536.499 C 1311.72 536.125 1329.44 539.146 1345.79 540.477 C 1347.85 543.782 1347.24 553.003 1348.12 557.444 C 1348.95 561.677 1351.02 565.991 1354.77 568.385 C 1356.34 569.394 1356.47 569.459 1358.29 569.087 C 1358.08 562.242 1349.64 556.34 1349.69 548.603 C 1349.7 546.025 1350.93 545.041 1352.52 543.233 C 1360.81 539.464 1376.74 543.046 1385.83 543.545 C 1386.39 552.294 1384.65 565.622 1390.85 572.73 C 1392.65 573.344 1392.57 573.489 1394.26 572.683 C 1394.83 567.224 1390.77 560.002 1389.85 554.335 C 1389.27 550.712 1389.27 547.733 1391.52 544.643 C 1399.19 542.756 1410.88 545.103 1418.89 545.785 C 1420.43 547.612 1421.09 564.206 1422.99 568.66 C 1424.42 571.991 1426.8 575.419 1430.2 576.73 L 1431.78 575.205 C 1431.58 568.573 1424.32 561.64 1422.79 554.799 C 1422.15 551.935 1422.65 550.837 1424.13 548.41 C 1430.03 544.678 1455.68 548.667 1463.85 549.207 C 1467.35 556.673 1460.02 564.514 1467.93 575.284 C 1469.5 577.428 1470.96 578.431 1473.55 578.782 L 1473.71 577.355 C 1465.75 565.596 1471.57 558.294 1467.79 549.753 C 1482.25 549.76 1496.87 551.59 1511.23 553.138 C 1512.33 555.188 1511.26 560.479 1511.29 562.93 C 1511.37 568.482 1512.67 577.094 1516.97 580.976 C 1518.75 582.583 1521.01 583.662 1523.42 583.492 C 1523.89 579.873 1516.73 569.275 1515.66 564.848 C 1514.65 560.648 1514.97 557.201 1517.22 553.503 C 1517.5 553.479 1517.79 553.451 1518.07 553.431 C 1523.71 553.03 1530.87 554.939 1536.69 555.39 C 1552.83 556.64 1573.74 555.993 1589.26 559.368 C 1593.44 560.277 1597.75 561.979 1600.91 564.939 C 1603.2 567.084 1605.22 570.136 1605.11 573.377 C 1604.84 581.119 1551.36 709.376 1543.52 729.241 L 1499.25 842.285 C 1492.79 858.907 1486.87 875.817 1480.07 892.292 C 1479.34 894.062 1478.55 895.233 1477.13 896.549 C 1477.54 899.835 1456.43 955.187 1453.51 958.897 C 1451.65 961.262 1448.76 962.128 1445.84 962.399 C 1431.95 963.692 1410.83 957.645 1396.64 955.175 L 1334.28 944.606 L 1191.41 920.189 C 1164.68 915.615 1137.63 911.546 1111.09 906.056 C 1105.22 904.84 1097.62 903.422 1092.95 899.503 C 1089.18 896.343 1086.44 892.087 1086.12 887.087 C 1085.63 879.37 1092.87 869.253 1097.7 863.76 C 1096.82 865.47 1095.57 867.495 1095.35 869.421 C 1095.14 871.333 1095.76 872.782 1096.93 874.288 C 1099.02 876.974 1103.58 878.522 1106.82 878.923 C 1110.61 879.391 1115.3 878.721 1118.35 876.244 C 1125.47 870.455 1291.13 576.807 1292.38 562.534 C 1288.05 558.223 1276.23 559.188 1270.23 558.974 C 1272.31 557.286 1273.42 554.672 1274.81 552.413 C 1280.13 543.775 1285.29 538.905 1295.4 536.499 z"/>
<path transform="translate(0,0)" fill="rgb(28,3,17)" d="M 1378.68 607.491 C 1380.07 607.518 1380.85 607.809 1382.11 608.342 C 1382.15 608.822 1382.22 609.44 1382.18 609.939 C 1381.71 616.08 1375.03 632.333 1370.73 636.586 C 1376.63 636.93 1384.34 636.439 1389.82 638.637 L 1390.01 640.148 L 1387.26 641.835 A 1664.88 1664.88 0 0 1 1364.52 640.424 C 1370.27 634.097 1375.47 615.998 1378.68 607.491 z"/>
<path transform="translate(0,0)" fill="rgb(28,3,17)" d="M 1291.75 661.495 C 1293.13 661.128 1294.56 661.028 1295.98 660.878 C 1296.8 661.442 1297.53 662.061 1298.12 662.872 C 1300.96 666.764 1301.36 676.189 1300.4 680.789 C 1308.66 677.999 1323.69 664.177 1331.12 664.371 C 1328.36 670.831 1318.36 675.377 1312.22 677.982 C 1312.18 678.047 1312.14 678.119 1312.09 678.177 C 1309.19 681.374 1305.89 685.012 1301.44 685.004 C 1295.89 681.554 1296.19 672.002 1293.73 666.393 L 1293.35 665.527 C 1291.7 667.792 1285.38 671.681 1282.78 673.048 C 1280.67 674.155 1278.18 675.022 1275.85 674.286 C 1278.15 668.119 1286.83 666.143 1291.42 661.818 C 1291.53 661.713 1291.64 661.603 1291.75 661.495 z"/>
<path transform="translate(0,0)" fill="rgb(28,3,17)" d="M 1243.72 736.494 L 1247.23 736.44 C 1248.37 737.201 1249.13 738.124 1249.71 739.364 C 1251.78 743.8 1253.17 752.538 1251.38 757.151 C 1263.66 752.972 1273.34 741.79 1285.78 737.225 L 1286.92 737.865 C 1286.84 738.124 1286.78 738.387 1286.69 738.641 C 1285 743.516 1270.33 751.027 1265.56 753.498 C 1262.35 757.768 1253.77 762.32 1248.78 764.361 C 1248.81 764.207 1248.84 764.053 1248.87 763.898 C 1249.7 758.387 1247.33 746.085 1244.01 741.502 C 1241.47 744.87 1233.9 750.078 1229.99 751.726 C 1228.17 752.496 1228.12 752.564 1226.32 751.801 C 1226.49 746.678 1239.95 741.102 1243.42 736.89 C 1243.52 736.761 1243.62 736.626 1243.72 736.494 z"/>
<path transform="translate(0,0)" fill="rgb(28,3,17)" d="M 1310.55 696.498 L 1312.91 697.225 L 1312.92 699.214 C 1307.49 705.368 1278.49 723.296 1270.29 725.011 C 1270.64 724.039 1270.89 723.037 1270.93 722 C 1271.13 716.954 1269.72 707.625 1266.28 703.778 C 1264.4 707.456 1255.15 712.658 1251.34 714.795 C 1249.78 714.687 1249.77 714.556 1248.59 713.49 C 1248.87 712.375 1249.09 711.884 1249.95 711.081 C 1254.34 706.993 1263.29 699.117 1269.27 699.52 C 1270.45 700.502 1271.51 701.563 1272.18 702.955 C 1274.16 707.076 1275.46 715.068 1273.84 719.363 C 1284.61 715.594 1300.19 702.877 1310.55 696.498 z"/>
<path transform="translate(0,0)" fill="rgb(28,3,17)" d="M 1264.5 772.496 C 1265.97 772.678 1266.16 772.744 1267.31 773.675 L 1266.72 775.703 C 1260.15 782.226 1235.14 799.201 1226.53 801.779 C 1226.58 801.544 1226.63 801.311 1226.67 801.076 C 1227.54 795.881 1224.06 782.716 1221 778.617 C 1218.71 782.848 1208.72 788.198 1204.36 790.927 L 1204.4 790.94 L 1202.37 791.139 C 1202.2 789.227 1202.11 789.026 1203.22 787.495 C 1206.4 783.105 1216.25 776.093 1221.6 775.582 C 1224.32 775.322 1225.35 776.277 1227.33 777.863 C 1229.79 782.091 1230.32 790.682 1229.27 795.424 C 1237.35 793.359 1256.77 777.962 1264.5 772.496 z"/>
<path transform="translate(0,0)" fill="rgb(28,3,17)" d="M 1238.03 812.495 L 1241.47 812.577 L 1242.33 813.873 C 1242.16 814.323 1242.15 814.366 1241.89 814.848 C 1239.3 819.67 1205.42 840.966 1199.26 843.035 C 1199.34 842.611 1199.46 842.062 1199.49 841.614 C 1199.86 835.75 1197.65 823.263 1193.95 818.707 C 1192.18 822.319 1182.42 827.902 1178.56 829.509 L 1177.69 829.583 L 1176.57 828.137 C 1178.08 824.279 1187.39 817.539 1191.29 815.683 C 1194 814.392 1195.6 814.389 1198.39 815.295 C 1199.12 816.081 1199.83 816.959 1200.22 817.967 C 1201.85 822.061 1203.5 832.35 1201.96 836.434 C 1209.05 834.327 1233.35 818.151 1238.03 812.495 z"/>
<path transform="translate(0,0)" fill="rgb(28,3,17)" d="M 1448.6 614.495 C 1449.57 614.304 1450.49 614.26 1451.47 614.225 C 1452.79 614.179 1453.13 614.064 1454.09 615.144 C 1458.27 619.838 1462.98 635.412 1462.45 641.417 C 1469.87 635.932 1469.82 624.17 1475.79 617.733 C 1477.2 616.218 1477.55 616.38 1479.52 616.288 L 1480.21 618.011 C 1476.92 625.053 1469.85 644.55 1464.42 648.555 L 1462.55 648.657 C 1456.44 643.263 1456.47 627.125 1450.26 620.169 C 1450.48 621.635 1450.38 622.601 1449.89 623.995 C 1447.69 630.312 1443.26 642.339 1437.09 645.349 C 1436.19 637.03 1447.81 623.903 1448.57 614.96 C 1448.59 614.805 1448.59 614.65 1448.6 614.495 z"/>
<path transform="translate(0,0)" fill="rgb(28,3,17)" d="M 1417.59 611.496 L 1422.45 611.08 L 1423.78 612.515 C 1425.21 622.625 1428.11 635.642 1426.98 645.744 L 1425.01 646.385 C 1423.04 644.387 1422.67 640.444 1422 637.672 C 1418.07 635.604 1409.44 636.074 1404.85 635.823 C 1401.54 636.967 1399.81 641.132 1396.51 643.036 L 1395.01 642.418 C 1393.18 636.231 1414.72 618.998 1417.59 611.496 z"/>
<path transform="translate(0,0)" fill="rgb(254,254,254)" d="M 1418.24 617.498 L 1419.83 618.873 C 1421.6 623.811 1422.78 626.484 1420.62 631.473 C 1417.26 633.546 1415.09 632.65 1411.23 632.279 C 1409.59 632.036 1409.42 632.195 1408.37 630.946 C 1409.86 626.212 1415.15 622.436 1417.84 618.142 L 1418.24 617.498 z"/>
<path transform="translate(0,0)" fill="rgb(28,3,17)" d="M 1341.96 604.498 C 1344.89 604.121 1348.09 604.339 1351.04 604.553 C 1354.99 604.84 1358.53 605.79 1361.19 608.944 C 1362.87 610.942 1363.64 613.274 1363.28 615.884 C 1362.85 619.004 1360.97 621.51 1358.57 623.424 C 1353.06 627.827 1346.82 627.174 1340.23 626.394 C 1336.54 628.597 1336.26 634.788 1332.98 638.1 L 1331.49 637.945 C 1329.04 631.62 1341.9 613.02 1341.96 604.498 z"/>
<path transform="translate(0,0)" fill="rgb(254,254,254)" d="M 1344.43 609.496 C 1350.07 608.691 1353.16 608.607 1357.93 612.022 C 1359.18 614.34 1359.31 614.386 1358.75 616.935 C 1356.81 619.318 1355.35 620.291 1352.6 621.501 C 1351.44 622.204 1350.59 622.479 1349.25 622.703 C 1346.17 623.217 1345.45 623.765 1342.9 621.943 C 1342.09 617.545 1344.81 614.283 1344.48 609.994 C 1344.47 609.827 1344.45 609.662 1344.43 609.496 z"/>
<path transform="translate(0,0)" fill="rgb(28,3,17)" d="M 1374.66 667.498 C 1381.48 666.354 1519.06 678.327 1527.16 680.795 L 1527.56 682.274 L 1525.77 684.501 L 1421.69 674.993 C 1408.98 673.872 1387.36 673.803 1375.71 670.393 L 1374.66 667.498 z"/>
<path transform="translate(0,0)" fill="rgb(28,3,17)" d="M 1339.81 725.495 C 1340.11 725.443 1340.41 725.385 1340.7 725.34 C 1352.01 723.646 1414.56 732.098 1430.07 733.785 C 1453.79 736.363 1477.97 737.801 1501.55 741.163 C 1502.94 741.361 1503.87 741.755 1504.98 742.592 L 1504.25 744.502 L 1502.88 745.544 C 1472.88 743.617 1442.78 739.046 1412.84 736.054 C 1391.5 733.922 1366.59 733.396 1345.84 729.307 C 1342.38 728.625 1341.83 728.458 1339.81 725.495 z"/>
<path transform="translate(0,0)" fill="rgb(28,3,17)" d="M 1346.81 709.496 C 1347.04 709.481 1347.26 709.464 1347.49 709.451 C 1361.98 708.653 1385.77 712.688 1401.13 714.173 L 1471.09 721.493 C 1483.38 722.728 1495.83 723.214 1508.07 724.878 C 1509.88 725.124 1510.83 725.226 1512.2 726.494 L 1511.4 728.503 C 1511.26 728.553 1511.12 728.608 1510.98 728.652 C 1506.3 730.105 1349.78 713.623 1348.53 712.908 C 1347.18 712.132 1347.23 710.933 1346.81 709.496 z"/>
<path transform="translate(0,0)" fill="rgb(28,3,17)" d="M 1310.31 772.497 C 1311.39 772.375 1312.52 772.264 1313.62 772.291 C 1329.96 772.686 1347.55 776.196 1363.98 777.828 C 1400.81 781.488 1441.55 784.675 1477.67 789.89 C 1479.96 790.22 1482.41 790.51 1484.03 792.287 L 1482.43 794.502 C 1468.17 794.282 1313.21 776.822 1312.17 776.19 C 1310.55 775.2 1310.66 774.224 1310.31 772.497 z"/>
<path transform="translate(0,0)" fill="rgb(28,3,17)" d="M 1301.68 788.494 C 1302.99 788.127 1304.2 787.921 1305.56 787.899 C 1314.2 787.759 1471.47 805.097 1475.67 806.755 C 1476.06 806.909 1476.89 807.92 1477.24 808.253 L 1475.76 810.504 C 1475.01 810.754 1314.72 794.615 1305.29 791.94 C 1302.91 791.264 1302.77 790.557 1301.68 788.494 z"/>
<path transform="translate(0,0)" fill="rgb(28,3,17)" d="M 422.053 72.116 C 423.554 61.8664 425.387 52.1984 431.165 43.3449 C 434.979 37.5001 440.663 32.4586 447.683 31.0957 C 453.589 29.9489 459.403 31.5437 464.274 34.9664 C 476.73 43.7186 479.945 58.9808 482.503 72.9635 L 520.074 72.9666 C 521.026 62.6036 522.732 52.6332 528.694 43.7869 C 532.652 37.9131 538.35 33.1981 545.472 31.9449 C 551.845 30.8234 558.187 32.7409 563.321 36.5572 C 574.827 45.1093 578.834 59.809 580.648 73.3081 A 1671.11 1671.11 0 0 0 619.433 73.8175 C 619.844 62.576 621.438 51.8226 628.529 42.574 C 632.566 37.308 638.255 33.3283 644.949 32.522 C 651.534 31.7288 657.623 34.0463 662.659 38.2248 C 673.239 47.0031 677.055 60.9573 678.321 74.0859 L 715.725 74.1451 C 716.399 64.4073 718.657 54.0287 724.033 45.7649 C 727.862 39.8789 733.435 35.1229 740.457 33.72 C 746.402 32.5324 752.461 33.9895 757.42 37.4213 C 769.631 45.8711 773.237 60.8368 775.727 74.524 L 812.885 74.7338 C 813.639 64.369 815.974 53.8216 821.961 45.1387 C 825.674 39.7534 831.151 35.1937 837.771 34.1458 C 843.539 33.2327 849.418 35.0086 854.059 38.4618 C 865.416 46.9119 869.486 61.7729 871.401 75.0923 L 909.873 75.1143 C 910.975 64.518 912.82 53.8158 919.44 45.1005 C 923.406 39.8798 928.888 35.9472 935.494 35.0793 C 941.549 34.284 947.25 36.2379 952.002 39.9608 C 962.951 48.5391 966.686 62.6359 968.46 75.7511 L 1004.51 75.695 C 1005.24 68.5254 1006.65 61.4416 1009.51 54.7921 C 1012.79 47.1448 1018.12 40.1319 1026.1 37.078 C 1031.85 34.878 1037.97 35.2839 1043.53 37.8384 C 1051.69 41.5837 1058.53 50.0483 1061.47 58.4244 C 1063.16 63.2235 1065.69 71.5694 1063.45 76.4146 C 1070.21 76.3645 1078.98 75.3991 1085.47 77.0863 C 1088.67 77.9181 1090.6 79.4897 1092.19 82.3678 C 1096.23 89.6626 1099.92 135.316 1097.71 142.997 C 1101.63 154.18 1104.86 240.04 1106.17 259.887 L 1129.26 604.31 C 1130.32 620.033 1140.14 744.098 1137.82 749.137 C 1137.61 749.587 1137.5 749.738 1137.25 750.121 L 730.783 749.064 C 639.112 749.047 547.283 750.016 455.633 748.365 A 2177.47 2177.47 0 0 0 405.587 748.34 C 395.896 748.379 385.702 749.014 376.083 747.698 C 370.422 746.924 368.04 742.961 364.923 738.74 C 365.246 693.4 368.093 647.74 369.561 602.391 L 378.172 338.037 L 384.474 163.566 C 385.501 137.325 385.179 110.367 387.643 84.2742 C 387.976 80.748 388.404 78.2306 391.034 75.69 C 397.418 69.5239 413.959 71.9124 422.053 72.116 z"/>
<path transform="translate(0,0)" fill="rgb(254,254,254)" d="M 839.459 38.0402 C 843.536 38.2448 846.956 38.7184 850.454 40.9636 C 861.423 48.0023 864.811 63.1223 867.533 74.9855 L 846.5 74.9334 L 817.516 74.925 C 817.951 66.9588 819.36 58.4189 823.134 51.3023 C 826.825 44.3442 832.065 40.3839 839.459 38.0402 z"/>
<path transform="translate(0,0)" fill="rgb(254,254,254)" d="M 933.075 39.1956 C 938.069 38.5835 942.262 38.5579 946.67 41.2726 C 958.265 48.413 961.781 63.163 964.639 75.5179 L 948.25 75.443 L 913.941 75.2762 C 914.636 69.9752 915.528 64.5777 917.012 59.4323 C 919.753 49.9266 924.418 43.9002 933.075 39.1956 z"/>
<path transform="translate(0,0)" fill="rgb(254,254,254)" d="M 1027.38 40.3919 C 1031.45 39.8411 1035.19 39.2816 1039.14 40.6664 C 1046.65 43.2954 1053.15 50.5787 1056.39 57.6759 C 1058.36 62.0093 1061.3 71.5673 1059.52 76.2053 L 1039.75 76.0968 L 1009.04 76.0111 A 240.394 240.394 0 0 1 1010.07 68.7452 C 1012.05 56.1777 1017.22 47.8117 1027.38 40.3919 z"/>
<path transform="translate(0,0)" fill="rgb(254,254,254)" d="M 742.347 37.0855 C 746.825 36.9507 750.878 37.709 754.66 40.1977 C 765.795 47.5239 769.134 62.1043 771.617 74.3052 L 751.25 74.2239 L 719.533 74.228 C 720.668 66.5396 722.189 58.3496 725.707 51.3668 C 729.398 44.0375 734.604 39.6355 742.347 37.0855 z"/>
<path transform="translate(0,0)" fill="rgb(254,254,254)" d="M 447.147 35.0189 C 452.649 34.4673 456.879 35.0739 461.585 38.2341 C 472.537 45.5892 475.626 60.5314 477.976 72.6242 L 460.75 72.4989 L 426.368 72.2998 C 426.984 67.4465 427.74 62.6981 429.073 57.9833 C 432.065 47.3971 437.58 40.3708 447.147 35.0189 z"/>
<path transform="translate(0,0)" fill="rgb(254,254,254)" d="M 645.355 36.0954 C 649.894 36.2878 654.129 37.2063 657.936 39.754 C 669.168 47.2709 672.106 61.5861 674.503 73.9485 L 652.52 73.8475 A 1592.71 1592.71 0 0 1 623.588 73.626 C 623.974 65.293 625.19 56.7682 629.158 49.3007 C 632.845 42.3633 637.983 38.4568 645.355 36.0954 z"/>
<path transform="translate(0,0)" fill="rgb(254,254,254)" d="M 544.058 36.1207 C 549.465 35.3583 554.218 35.611 559.008 38.5137 C 570.514 45.4865 573.967 61.0485 576.86 73.171 L 555.75 73.1132 L 524.276 72.9307 C 524.863 67.4258 525.703 62.1412 527.317 56.8337 C 530.288 47.0617 535.122 40.9212 544.058 36.1207 z"/>
<path transform="translate(0,0)" fill="rgb(116,120,246)" d="M 390.282 146.735 C 392.919 165.677 392.023 192.907 392.992 213.021 L 400.317 359.844 L 419.46 743.863 L 398.5 743.909 C 392.013 744.066 384.623 744.81 378.239 743.773 C 374.923 743.234 372.175 742.208 370.185 739.357 C 368.197 727.679 370.116 713.358 370.566 701.431 L 373.177 632.622 L 381.345 386.71 L 386.812 216.549 C 387.389 199.335 386.716 160.871 390.282 146.735 z"/>
<path transform="translate(0,0)" fill="rgb(116,120,246)" d="M 395.814 76.8981 C 420.83 74.869 453.175 76.8081 478.939 76.8812 C 479.064 85.5091 478.591 94.9449 476.909 103.415 C 475.422 110.902 468.674 121.043 470.282 128.667 C 470.616 128.431 471.127 128.102 471.432 127.788 C 481.212 117.704 482.416 90.4238 482.738 76.9606 A 7619.57 7619.57 0 0 1 577.191 77.6632 C 577.235 88.5285 577.358 101.316 573.742 111.731 C 572.124 116.389 569.65 120.815 568.181 125.496 C 567.283 128.358 567.415 128.941 568.791 131.543 L 569.839 131.075 L 567.818 130.481 L 570.187 130.709 C 580.079 117.308 582.125 93.9819 581.026 77.9462 L 675.172 78.0805 C 675.277 84.7962 675.761 91.9118 674.555 98.5445 C 673.055 106.8 664.558 125.183 666.556 131.337 L 668.096 130.506 C 678.02 114.372 679.426 96.5468 678.967 78.169 L 772.224 78.5753 C 772.69 89.8302 772.403 102.214 769.348 113.13 C 767.835 118.536 762.406 124.947 762.489 130.432 C 762.501 131.256 763.169 131.585 763.722 132.144 C 764.35 131.828 764.343 131.871 764.97 131.323 C 775.653 121.982 776.695 91.8319 776.352 78.7846 L 867.986 79.1741 C 868.044 88.276 867.92 97.6613 866.034 106.606 C 864.382 114.438 856.896 125.146 857.529 132.764 C 858.122 132.502 858.602 132.296 859.066 131.826 C 871.047 119.683 872.061 95.1711 871.992 79.36 L 965.037 79.953 C 965.122 84.751 964.944 89.4572 964.638 94.2406 C 964.079 99.2464 963.653 104.192 962.265 109.058 C 960.23 116.195 956.577 123.485 956.024 130.897 L 956.847 131.505 C 956.988 131.367 957.132 131.232 957.269 131.09 C 968.993 118.921 969.089 95.8963 968.91 80.2154 L 1059.41 80.6599 C 1064.58 89.4567 1059.83 109.426 1056.25 118.529 C 1054.64 122.621 1051.29 126.501 1050.94 130.924 L 1052.26 132.144 L 1054.39 131.607 C 1058.95 127.193 1060.95 118.359 1062.47 112.315 C 1064.37 104.773 1068.03 87.3842 1063.99 80.6338 C 1070.27 80.788 1079.72 79.5685 1085.46 81.9389 C 1087.32 82.7073 1088.24 83.3506 1089 85.2025 C 1092.08 92.7079 1096.25 150.837 1093.6 156.968 L 395.861 154.855 C 395.372 136.968 390.237 96.6587 393.19 81.7458 C 393.554 79.9103 394.683 78.3443 395.814 76.8981 z"/>
<path transform="translate(0,0)" fill="rgb(254,254,254)" d="M 395.55 158.988 L 1094.1 161.143 C 1094.64 161.978 1095.14 162.873 1095.43 163.827 C 1097.94 172.319 1097.79 196.932 1098.4 207.149 L 1104.99 308.499 L 1125.24 610.101 C 1127.93 652.133 1131.8 694.284 1133.35 736.362 C 1133.48 740.125 1133.99 742.178 1132.08 745.506 C 1118.28 747.868 1082.36 745.877 1066.36 745.758 L 928.188 745.285 L 424.032 743.999 C 421.784 687.467 418.32 630.908 415.397 574.403 C 408.236 435.997 400.678 297.48 395.55 158.988 z"/>
<path transform="translate(0,0)" fill="rgb(28,3,17)" d="M 894.287 197.31 C 895.807 197.575 897.273 198.202 898.723 198.719 C 900.277 201.425 899.85 202.537 899.618 205.591 L 895.346 204.248 C 893.655 201.562 894.107 200.419 894.287 197.31 z"/>
<path transform="translate(0,0)" fill="rgb(28,3,17)" d="M 895.724 213.335 C 897.012 214.08 898.049 214.349 898.649 215.763 C 900.618 220.399 900.618 246.872 898.623 251.849 C 897.326 251.048 896.032 250.659 895.502 249.181 C 893.425 243.382 892.959 218.908 895.724 213.335 z"/>
<path transform="translate(0,0)" fill="rgb(28,3,17)" d="M 575.814 357.399 C 576.921 357.897 577.872 358.09 578.572 359.132 C 580.93 362.644 583.444 416.531 582.275 422.748 C 581.181 422.374 580.587 422.092 579.88 421.183 C 577.154 417.68 574.912 364.448 575.814 357.399 z"/>
<path transform="translate(0,0)" fill="rgb(28,3,17)" d="M 948.742 627.455 C 949.66 627.964 950.21 628.406 950.834 629.236 C 953.416 632.669 956.495 685.654 955.64 691.971 C 954.097 691.235 953.555 690.7 952.543 689.32 C 950.718 679.662 946.24 634.859 948.742 627.455 z"/>
<path transform="translate(0,0)" fill="rgb(28,3,17)" d="M 694.199 356.616 C 695.21 357.069 695.987 357.826 696.838 358.527 C 699.316 367.476 702.069 414.02 700.636 422.893 L 698.019 420.901 C 695.63 413.019 691.933 362.445 694.199 356.616 z"/>
<path transform="translate(0,0)" fill="rgb(28,3,17)" d="M 927.74 356.276 C 929.146 356.805 930.347 356.911 931.045 358.39 C 933.316 363.206 936.418 418.909 935.186 423.53 L 932.914 422.233 C 929.834 416.925 927.132 364.649 927.74 356.276 z"/>
<path transform="translate(0,0)" fill="rgb(28,3,17)" d="M 712.108 622.254 C 713.786 622.746 714.129 622.778 715.341 624.131 C 717.901 635.485 720.918 680.619 719.833 692.093 C 718.769 691.831 718.222 691.589 717.477 690.8 C 714.944 688.119 711.953 630.198 712.108 622.254 z"/>
<path transform="translate(0,0)" fill="rgb(28,3,17)" d="M 829.652 623.282 L 832.158 624.626 C 835.513 630.954 838.329 683.044 837.621 692.087 C 836.143 691.519 835.562 691.219 834.547 689.924 C 832.256 679.111 828.066 632.859 829.652 623.282 z"/>
<path transform="translate(0,0)" fill="rgb(28,3,17)" d="M 812.017 355.726 L 813.565 357.251 C 815.913 363.454 819.299 419.663 817.699 423.978 C 815.819 422.923 814.906 422.576 814.366 420.298 C 813.021 414.621 809.45 362.913 810.409 358.607 C 810.586 357.814 811.593 356.486 812.017 355.726 z"/>
<path transform="translate(0,0)" fill="rgb(28,3,17)" d="M 593.142 620.441 L 595.157 621.294 C 598.694 625.804 601.056 682.462 601.884 693.126 L 599.035 692.725 C 595.527 688.685 592.598 629.576 593.142 620.441 z"/>
<path transform="translate(0,0)" fill="rgb(28,3,17)" d="M 822.866 532.145 L 825.013 532.88 C 828.762 537.691 831.07 596.094 831.837 606.848 C 830.292 606.926 829.706 606.671 828.387 605.977 C 824.818 597.264 823.094 545.012 822.866 532.145 z"/>
<path transform="translate(0,0)" fill="rgb(28,3,17)" d="M 705.498 530.233 C 706.557 530.683 707.493 530.838 708.143 531.832 C 710.938 536.11 714.741 602.882 713.243 608.586 C 712.097 608.083 711.393 607.243 710.551 606.355 C 708.15 593.019 704.501 543.458 705.498 530.233 z"/>
<path transform="translate(0,0)" fill="rgb(28,3,17)" d="M 817.05 438.587 L 819.038 439.834 C 822.381 447.945 825.695 506.387 824.66 516.271 C 823.122 515.613 822.541 515.273 821.569 513.913 C 819.872 503.851 814.821 444.729 817.05 438.587 z"/>
<path transform="translate(0,0)" fill="rgb(28,3,17)" d="M 933.613 439.271 C 934.761 439.748 935.66 439.906 936.384 440.97 C 939.201 445.107 943.347 511.506 942.195 516.676 C 941.179 516.195 940.409 515.545 939.529 514.857 C 936.781 505.327 932.948 449.811 933.613 439.271 z"/>
<path transform="translate(0,0)" fill="rgb(28,3,17)" d="M 941.027 532.665 C 942.048 533.215 942.779 533.461 943.432 534.435 C 946.463 538.961 950.608 603.839 949.394 609.631 C 948.404 609.009 947.617 608.245 946.757 607.461 C 944.68 598.014 938.92 539.077 941.027 532.665 z"/>
<path transform="translate(0,0)" fill="rgb(28,3,17)" d="M 700.167 438.694 L 702.355 440.416 C 704.895 451.086 708.577 504.589 707.644 516.321 C 706.044 515.674 705.481 515.315 704.453 513.929 C 702.561 504.678 697.384 445.002 700.167 438.694 z"/>
<path transform="translate(0,0)" fill="rgb(28,3,17)" d="M 869.016 206.193 L 871.162 206.831 C 873.313 209.28 872.725 210.912 872.761 214.105 C 875.941 216.921 879.973 214.56 883.654 216.796 L 883.779 218.73 C 880.879 220.625 876.263 220.108 872.84 220.147 C 873.061 227.825 870.009 238.858 875.092 245.138 C 878.6 247.039 880.539 246.659 884.478 246.619 C 884.177 248.26 883.586 249.196 882.634 250.552 C 879.26 251.278 875.453 251.686 872.324 249.856 C 864.766 245.438 869.613 231.979 867.759 224.949 C 866.92 221.771 865.153 220.329 862.326 218.762 C 862.174 218.678 862.02 218.597 861.867 218.514 L 861.965 216.853 C 863.129 216.258 864.492 215.658 865.529 214.863 C 868.679 212.451 868.368 209.882 869.016 206.193 z"/>
<path transform="translate(0,0)" fill="rgb(28,3,17)" d="M 586.909 525.438 C 587.813 525.878 588.645 526.587 589.464 527.173 C 591.875 535.633 596.494 600.306 595.263 608.745 L 592.416 607.381 C 589.917 600.484 584.889 532.027 586.909 525.438 z"/>
<path transform="translate(0,0)" fill="rgb(28,3,17)" d="M 580.475 433.418 C 582.01 434.319 582.957 434.813 583.539 436.658 C 585.573 443.116 589.161 503.798 588.895 512.683 C 588.845 514.341 588.33 515.797 587.548 517.244 L 585.444 514.915 C 583.595 505.872 578.045 439.374 580.475 433.418 z"/>
<path transform="translate(0,0)" fill="rgb(28,3,17)" d="M 915.949 213.76 C 917.619 214.26 918.142 214.99 919.356 216.095 C 919.609 216.325 920.87 217.451 921.08 217.506 C 923.158 218.051 933.191 214.087 936.373 213.914 C 938.836 213.78 941.335 214.41 943.093 216.223 C 946.833 220.076 946.886 226.404 947.025 231.426 C 947.163 236.403 948.434 246.925 944.969 250.58 L 943.802 249.8 C 941.008 242.618 942.27 231.669 942.307 224.034 C 941.546 222.505 940.698 221.254 939.347 220.17 C 936.869 218.182 932.958 218.199 929.945 218.588 C 911.789 220.935 925.219 242.618 918.817 250.693 L 916.755 250.54 C 916.587 250.307 916.406 250.082 916.25 249.841 C 914.357 246.894 914.947 218.145 915.949 213.76 z"/>
<path transform="translate(0,0)" fill="rgb(28,3,17)" d="M 472.507 519.289 C 486.241 518.036 582.792 517.63 589.323 520.698 L 590.023 523.63 A 6032.49 6032.49 0 0 0 510.722 523.009 C 501.205 522.974 481.797 524.654 473.502 522.226 L 472.507 519.289 z"/>
<path transform="translate(0,0)" fill="rgb(28,3,17)" d="M 649.421 243.594 C 652.381 234.025 653.663 220.197 660.085 212.33 L 661.308 212.367 C 661.715 214.377 662.095 215.88 661.252 217.826 C 661.196 217.957 661.13 218.083 661.069 218.212 C 659.031 225.771 656.104 244.36 649.943 248.64 C 643.485 246 637.054 227.697 633.871 220.993 C 631.051 228.114 627.689 245.191 621.941 249.731 L 620.313 248.971 C 614.271 241.434 607.352 222.207 606.547 212.528 L 609.243 213.266 C 614.66 217.517 618.339 235.641 621.15 242.539 A 483.98 483.98 0 0 1 633.574 210.326 C 640.283 220.067 644.566 232.72 649.421 243.594 z"/>
<path transform="translate(0,0)" fill="rgb(28,3,17)" d="M 509.535 200.391 C 516.847 203.558 538.076 232.636 544.72 240.417 C 544.507 229.005 542.225 215.966 544.317 204.767 C 544.755 202.423 545.012 202.413 546.924 201.127 C 549.648 204.99 550.032 240.123 549.141 246.449 C 548.786 248.967 548.58 248.971 546.662 250.47 L 513.031 208.955 C 513.477 217.526 516.534 244.486 512.534 250.474 C 511.677 250.106 511.478 250.013 510.997 249.241 C 507.742 244.019 508.117 207.595 509.535 200.391 z"/>
<path transform="translate(0,0)" fill="rgb(28,3,17)" d="M 707.654 204.972 C 707.83 205.006 708.008 205.035 708.184 205.073 C 716.322 206.851 728.955 231.406 733.452 238.571 C 739.106 230.115 745.461 215.069 752.407 208.52 C 753.981 207.036 754.078 206.966 756.226 207.064 C 756.657 207.638 757.038 208.206 757.342 208.861 C 760.265 215.155 759.024 243.598 756.33 250.218 C 755.647 249.579 754.981 247.998 754.477 247.152 L 754.458 247.618 C 753.689 239.82 753.55 232.099 753.504 224.267 L 753.586 213.91 C 747.456 224.656 741.246 236.072 733.638 245.834 C 726.05 236.118 720.44 223.406 711.941 214.663 C 712.01 224.693 712.979 235.193 712.369 245.165 C 712.214 247.687 712.122 249.226 710.19 250.921 L 708.365 249.693 C 705.84 241.606 707.677 214.922 707.654 204.972 z"/>
<path transform="translate(0,0)" fill="rgb(28,3,17)" d="M 577.22 212.184 C 581.836 211.834 587.141 212.59 591.071 215.167 C 594.997 217.742 597.503 222.292 598.363 226.818 C 598.139 227.726 598.042 229.095 597.371 229.745 C 593.074 233.905 581.701 232.192 575.801 232.327 C 572.826 232.395 570.935 232.696 568.9 234.836 C 569.094 237.554 571.068 239.45 572.881 241.304 C 576.999 245.513 581.673 245.601 587.23 245.713 C 590.041 244.537 592.071 243.121 594.973 244.271 L 594.618 246.041 C 593.744 246.814 592.81 247.565 591.752 248.072 C 586.971 250.364 581.033 250.373 576.109 248.575 C 571.237 246.796 567.382 243.675 565.208 238.909 C 562.869 233.78 563.174 228.009 565.176 222.832 C 567.464 216.915 571.668 214.63 577.22 212.184 z"/>
<path transform="translate(0,0)" fill="rgb(254,254,254)" d="M 575.798 216.993 A 81.2855 81.2855 0 0 1 578.444 216.77 C 583.185 216.463 586.765 217.568 590.264 220.929 C 592.086 222.68 592.9 224.081 593.054 226.554 C 591.229 228.155 590.612 227.867 588.25 227.972 C 583.192 228.125 573.433 229.499 569.252 226.424 L 568.962 224.239 C 570.639 221.052 573.029 219.213 575.798 216.993 z"/>
<path transform="translate(0,0)" fill="rgb(28,3,17)" d="M 788.556 214.069 C 792.451 213.804 797.786 214.328 800.931 216.877 C 804.476 219.75 809.128 225.162 809.638 229.822 C 805.859 238.959 785.376 229.805 778.452 235.991 C 778.636 238.582 780.008 240.106 781.775 241.884 C 786.732 246.873 791.618 246.986 798.338 247.061 C 800.443 245.835 802.121 244.787 804.626 244.624 L 805.621 245.784 C 804.388 248.144 802.334 249.131 799.903 249.999 C 794.476 251.937 788.521 251.435 783.381 248.897 C 778.71 246.59 775.198 242.853 773.667 237.822 C 772.213 233.046 772.886 227.685 775.266 223.317 C 778.259 217.823 782.756 215.684 788.556 214.069 z"/>
<path transform="translate(0,0)" fill="rgb(254,254,254)" d="M 787.024 218.086 C 788.762 218.043 790.512 218.021 792.247 218.153 C 795.664 218.414 799.788 220.923 801.896 223.572 C 803.35 225.399 803.296 226.028 803.061 228.186 C 800.306 230.402 798.699 229.981 795.228 230.158 C 789.503 230.367 782.839 231.582 778.324 227.478 L 778.751 224.987 C 781.153 221.989 783.811 220.152 787.024 218.086 z"/>
<path transform="translate(0,0)" fill="rgb(28,3,17)" d="M 832.08 214.054 C 837.055 213.877 841.725 213.972 845.903 217.019 C 850.534 220.394 852.793 224.061 853.694 229.686 C 850.325 239.774 831.502 230.234 823.909 235.679 C 823.854 238.648 825.819 241.004 827.836 243.04 C 831.728 246.97 836.527 247.151 841.752 247.126 C 845.034 245.877 848.269 244.171 851.714 245.311 C 850.971 247.389 850.293 247.659 848.43 248.658 C 843.495 251.306 837.044 251.937 831.7 250.272 C 826.662 248.702 822.088 245.323 819.757 240.516 C 817.44 235.737 817.667 230.308 819.485 225.409 C 821.834 219.077 826.18 216.687 832.08 214.054 z"/>
<path transform="translate(0,0)" fill="rgb(254,254,254)" d="M 832.118 218.018 C 834.054 217.989 836.082 217.944 837.998 218.24 C 840.996 218.701 845.741 221.885 847.283 224.428 C 848.393 226.259 848.282 226.597 847.893 228.567 C 845.308 230.46 843.407 230.084 840.25 230.245 C 836.567 230.356 832.448 230.936 828.826 230.533 C 826.17 230.237 824.693 229.425 823.054 227.421 C 824.295 222.683 828.141 220.524 832.118 218.018 z"/>
<path transform="translate(0,0)" fill="rgb(28,3,17)" d="M 972.844 215.141 C 978.993 214.654 980.84 215.653 986.275 218.111 C 993.427 221.347 988.91 216.141 993.971 214.308 C 995.557 215.921 995.721 216.363 996.046 218.617 C 997.58 229.25 998.569 252.734 991.928 261.262 C 990.103 263.606 987.825 265.201 984.817 265.466 C 978.466 266.024 969.004 264.711 964.002 260.65 L 964.131 259.089 L 966.177 257.652 A 51.886 51.886 0 0 0 967.58 258.286 C 973.73 260.958 981.133 262.169 987.487 259.433 C 988.719 258.903 990.04 257.874 990.536 256.599 C 991.819 253.3 992.842 248.849 991.413 245.583 C 984.822 247.976 976.973 250.959 969.955 248.646 C 967.075 247.697 964.637 245.748 963.277 243.012 C 960.973 238.378 960.161 230.827 961.796 225.878 C 963.594 220.438 967.95 217.57 972.844 215.141 z"/>
<path transform="translate(0,0)" fill="rgb(254,254,254)" d="M 974.673 219.119 C 976.536 219.097 978.4 219.119 980.23 219.504 C 984.359 220.372 988.202 222.56 990.445 226.229 C 992.289 229.246 992.76 232.661 991.797 236.069 C 990.303 241.352 987.196 243.218 982.646 245.752 C 980.452 245.953 978.367 246.042 976.197 245.569 C 972.534 244.771 969.622 242.676 967.632 239.493 C 965.654 236.329 965.199 232.494 966.165 228.913 C 967.465 224.095 970.492 221.501 974.673 219.119 z"/>
<path transform="translate(0,0)" fill="rgb(28,3,17)" d="M 603.613 520.325 C 615.034 519.469 626.866 519.965 638.321 519.977 L 717.069 520.793 L 951.661 521.88 C 966.689 521.964 1047.01 520.44 1055.66 523.656 L 1056.03 525.129 L 1053.34 526.591 L 935.565 524.918 C 902.225 524.723 609.847 525.313 605.011 523.206 C 604.255 522.877 603.907 521.12 603.613 520.325 z"/>
<path transform="translate(0,0)" fill="rgb(28,3,17)" d="M 667.854 616.754 C 649.341 617.812 629.975 616.397 611.394 616.212 L 503.085 615.973 C 496.873 616.008 481.644 617.489 476.564 615.833 C 474.963 615.311 474.926 614.715 474.336 613.298 C 476.735 611.618 481.02 611.75 483.923 611.679 C 525.385 610.665 567.251 612.59 608.743 612.729 L 666.302 612.845 C 678.6 612.885 691.287 612.435 703.504 613.869 A 17233 17233 0 0 1 951.232 615.807 L 1021.05 616.283 C 1031.36 616.33 1042.05 615.756 1052.32 616.379 C 1054.46 616.51 1058.27 616.887 1060.08 618.098 L 1059.91 619.268 C 1058.23 619.995 1056.91 620.256 1055.1 620.29 C 1018.58 620.987 981.874 619.81 945.356 619.203 L 845.824 618.321 C 786.779 617.617 726.733 618.713 667.854 616.754 z"/>
<path transform="translate(0,0)" fill="rgb(28,3,17)" d="M 469.904 426.214 C 482.122 424.125 497.2 425.767 509.716 425.841 L 599.731 426.608 L 903.367 428.56 C 918.601 428.75 1048.22 428.427 1051.6 430.285 L 1051.65 432.514 L 1050.47 433.625 C 1026.36 434.047 1002.19 433.29 978.072 433.095 L 853.434 432.155 L 601.648 430.397 C 587.564 430.261 474.444 430.932 471.492 429.248 C 470.259 428.545 470.297 427.508 469.904 426.214 z"/>
<path transform="translate(0,0)" fill="rgb(28,3,17)" d="M 471.291 331.389 C 497.25 330.623 523.426 331.587 549.404 331.828 L 668.066 332.724 L 932.742 334.288 C 970.941 334.447 1009.42 336.275 1047.59 335.051 C 1048.81 336.419 1048.96 336.339 1048.93 338.147 C 1048.35 338.45 1047.78 338.694 1047.15 338.897 C 1041.64 340.676 990.517 338.998 980.08 338.955 L 714.11 337.302 C 686.25 337.14 476.361 336.881 472.362 334.21 C 471.253 333.468 471.471 332.626 471.291 331.389 z"/>
<path transform="translate(0,0)" fill="rgb(28,3,17)" d="M 472.144 315.998 L 472.703 313.197 C 477.847 310.297 590.359 312.511 606.913 312.643 L 942.991 313.982 A 6355.8 6355.8 0 0 0 1010.52 314.093 C 1019.99 314.058 1036.78 312.248 1045.49 314.516 C 1047.33 314.995 1047.36 315.11 1048.3 316.751 L 1046.7 318.965 L 642.971 317.164 L 528.764 316.703 C 510.296 316.629 490.444 318.003 472.144 315.998 z"/>
<path transform="translate(0,0)" fill="rgb(243,65,86)" d="M 637.574 444.25 C 641.055 443.953 644.559 443.716 648.045 444.076 C 657.906 445.096 664.984 451.102 671 458.517 C 675.577 455.233 685.227 446.706 690.791 447.53 C 688.601 453.678 678.258 459.077 672.951 462.62 C 676.412 470.125 678.584 477.203 676.934 485.507 C 675.007 495.204 668.3 502.08 660.364 507.398 A 36.3844 36.3844 0 0 1 646.036 510.516 C 635.569 510.617 628.227 505.813 621.105 498.735 C 617.364 501.681 612.531 506.465 607.523 506.278 L 607.157 504.774 C 609.549 500.416 614.23 497.828 618.228 495.071 C 616.53 492.072 614.972 488.95 613.841 485.69 C 611.109 477.821 611.864 468.467 615.646 461.08 C 620.273 452.042 628.179 447.199 637.574 444.25 z"/>
<path transform="translate(0,0)" fill="rgb(116,120,246)" d="M 472.144 315.998 C 490.444 318.003 510.296 316.629 528.764 316.703 L 642.971 317.164 L 1046.7 318.965 C 1048.64 323.206 1049.72 329.816 1047.93 334.287 C 1047.82 334.545 1047.7 334.796 1047.59 335.051 C 1009.42 336.275 970.941 334.447 932.742 334.288 L 668.066 332.724 L 549.404 331.828 C 523.426 331.587 497.25 330.623 471.291 331.389 C 472.338 326.52 472.003 320.98 472.144 315.998 z"/>
</svg>