<?xml version="1.0" encoding="utf-8" ?>
<svg xmlns="http://www.w3.org/2000/svg" xmlns:xlink="http://www.w3.org/1999/xlink" width="2380" height="724">
	<path fill="#B02320" d="M761.457 349.494C772.759 347.935 783.591 348.354 793.324 354.993C801.739 360.734 806.801 369.98 808.639 379.865C810.644 390.646 809.033 402.47 802.657 411.574C796.793 419.947 787.937 424.711 778.026 426.509C772.392 428.453 765.146 427.1 759.683 425.096Q758.754 424.745 757.844 424.35Q756.933 423.954 756.042 423.515Q755.152 423.076 754.283 422.595Q753.415 422.113 752.571 421.59Q751.727 421.067 750.909 420.504Q750.091 419.941 749.302 419.339Q748.512 418.737 747.752 418.098Q746.993 417.459 746.265 416.783Q745.537 416.108 744.843 415.398Q744.148 414.689 743.489 413.946Q742.83 413.204 742.207 412.431Q741.584 411.657 740.999 410.855Q740.415 410.052 739.87 409.222Q739.325 408.392 738.82 407.537Q738.316 406.682 737.853 405.803Q737.391 404.925 736.971 404.025Q736.558 403.116 736.19 402.187Q735.822 401.259 735.5 400.314Q735.178 399.368 734.903 398.408Q734.628 397.448 734.401 396.476Q734.173 395.504 733.994 394.521Q733.814 393.539 733.683 392.549Q733.553 391.559 733.471 390.564Q733.388 389.568 733.355 388.57Q733.322 387.572 733.338 386.574Q733.354 385.575 733.42 384.579Q733.485 383.582 733.599 382.59Q733.713 381.598 733.875 380.613Q734.038 379.627 734.249 378.651Q734.46 377.675 734.719 376.71Q734.977 375.746 735.283 374.795Q735.589 373.845 735.941 372.91C740.61 360.734 750.035 354.571 761.457 349.494Z"/>
	<path fill="#B02320" d="M975.709 348.499C986.576 347.788 996.339 349.444 1005 356.483Q1005.74 357.094 1006.45 357.742Q1007.17 358.389 1007.84 359.071Q1008.52 359.752 1009.17 360.466Q1009.81 361.181 1010.42 361.926Q1011.03 362.671 1011.6 363.445Q1012.17 364.22 1012.7 365.021Q1013.23 365.823 1013.73 366.649Q1014.22 367.476 1014.67 368.326Q1015.12 369.176 1015.53 370.047Q1015.94 370.918 1016.3 371.808Q1016.66 372.699 1016.98 373.606Q1017.3 374.513 1017.58 375.435Q1017.85 376.356 1018.08 377.291Q1018.31 378.225 1018.5 379.169Q1018.68 380.114 1018.82 381.066Q1018.95 382.018 1019.04 382.976C1020.15 393.998 1017.3 405.379 1010.14 413.962C1003.2 422.275 994.355 426.233 983.747 427.193C976.261 427.922 968.771 425.904 962.317 422.101Q961.468 421.594 960.646 421.045Q959.823 420.497 959.029 419.908Q958.234 419.32 957.47 418.693Q956.705 418.066 955.973 417.402Q955.24 416.738 954.542 416.038Q953.843 415.339 953.18 414.606Q952.516 413.873 951.89 413.108Q951.263 412.343 950.676 411.548Q950.088 410.753 949.54 409.93Q948.992 409.107 948.486 408.258Q947.979 407.409 947.515 406.536Q947.052 405.663 946.631 404.768Q946.211 403.873 945.836 402.958Q945.46 402.044 945.131 401.112Q944.801 400.179 944.517 399.232Q944.234 398.285 943.998 397.325C941.394 387.055 942.448 375.988 947.988 366.844C954.394 356.274 964.09 351.399 975.709 348.499Z"/>
	<path fill="#B02320" d="M1511.28 444.5C1521.43 443.581 1531.29 445.032 1539.83 450.948C1548.75 457.13 1554.22 466.975 1556.03 477.561C1557.8 487.924 1555.72 498.574 1549.53 507.147C1542.96 516.24 1533.18 521.665 1522.24 523.479C1522.15 523.51 1522.07 523.548 1521.98 523.573C1515.71 525.324 1506.49 523.009 1500.91 520.002C1491.27 514.796 1484.34 505.201 1481.23 494.813Q1480.95 493.87 1480.71 492.914Q1480.47 491.957 1480.29 490.991Q1480.1 490.024 1479.96 489.049Q1479.82 488.074 1479.72 487.094Q1479.63 486.113 1479.59 485.129Q1479.55 484.145 1479.55 483.16Q1479.56 482.175 1479.61 481.192Q1479.67 480.209 1479.77 479.229Q1479.87 478.25 1480.03 477.277Q1480.18 476.303 1480.38 475.339Q1480.58 474.375 1480.83 473.421Q1481.07 472.468 1481.37 471.528Q1481.66 470.588 1482 469.664Q1482.34 468.74 1482.73 467.834Q1483.11 466.928 1483.55 466.042Q1483.98 465.156 1484.45 464.293C1490.54 453.101 1499.43 448 1511.28 444.5Z"/>
	<path fill="#282420" d="M1038.6 241.498C1051.84 238.83 1082.17 240.84 1097.26 240.834L1235.64 240.774C1236.17 241.694 1236.61 242.766 1236.88 243.798C1238.42 249.629 1238.73 293.84 1238.23 301.174C1238.11 302.813 1237.56 304.212 1236.73 305.609C1216.52 307.523 1194.7 305.865 1174.34 305.859C1174.92 306.687 1175.37 307.576 1175.57 308.57C1178.19 321.287 1176.39 364.305 1176.34 380.385C1176.26 410.295 1177.73 440.764 1176.3 470.603C1176.19 472.892 1175.82 474.575 1174.59 476.549C1175.11 477.376 1175.51 478.209 1175.77 479.155C1177.32 484.612 1177.3 532.858 1175.16 536.662C1155.31 538.546 1120.67 537.29 1100.01 536.558C1100.53 535.476 1100.92 534.406 1101.2 533.239C1103.53 523.607 1101.95 480.724 1101.97 468.256C1102.04 416.578 1103.34 362.997 1102.05 311.635C1102 309.39 1101.66 307.827 1100.5 305.875C1079.8 305.487 1059.02 305.857 1038.31 305.852C1041.87 298.612 1040.88 249.697 1038.6 241.498Z"/>
	<path fill="#282420" d="M642.027 241.049C659.581 239.204 678.778 240.671 696.491 240.684L805.423 240.839C806.083 241.826 806.477 242.827 806.712 243.988C808.097 250.816 808.507 302.513 806.209 305.995C776.188 306.853 745.907 306.081 715.858 306.077L715.882 470.539C737.052 471.475 758.543 470.77 779.75 470.816Q792.521 470.776 805.291 470.985C805.722 471.632 806.101 472.312 806.324 473.061C807.924 478.43 807.828 533.001 805.77 536.931C787.504 537.539 769.031 536.968 750.747 536.966L642.044 536.951C642.769 507.225 641.795 477.699 641.89 448Q642.883 344.525 642.027 241.049Z"/>
	<path fill="#282420" d="M849.623 241.494C861.68 238.642 887.432 240.649 900.744 240.669C939.021 240.73 977.325 240.52 1015.6 241.039C1016.07 241.771 1016.52 242.559 1016.75 243.404C1018.58 250.021 1018.54 301.179 1015.72 305.864C985.105 306.741 954.211 305.811 923.559 305.942C924.058 306.849 924.49 307.778 924.75 308.785C926.876 317.012 925.056 358.038 925.022 369.464C924.926 401.341 926.201 433.523 925.12 465.359C925.05 467.446 924.747 468.922 923.639 470.709C945.487 471.886 967.844 470.97 989.75 471.014Q1002.1 470.986 1014.45 471.204C1014.85 471.855 1015.13 472.474 1015.39 473.196C1016.81 477.266 1017.94 533.156 1016.23 536.575C1005.5 538.488 978.27 536.884 966.123 536.887C927.496 536.897 888.701 537.646 850.092 536.584C850.375 536.113 850.637 535.63 850.852 535.124C851.909 532.635 851.828 273.111 850.815 247.014C850.737 244.999 850.387 243.363 849.623 241.494Z"/>
	<path fill="#282420" d="M1472.28 241.499C1481.65 239.912 1492.5 240.891 1502.06 240.894L1560.46 241.013C1560.96 241.436 1561.4 241.892 1561.78 242.421C1566.98 249.543 1583.48 300.005 1587.77 311.898Q1626.82 423.005 1667.83 533.402C1668.32 534.711 1668.44 535.545 1668.17 536.939C1642.8 538.352 1610.16 537.703 1584.49 536.76C1584.73 536.097 1584.92 535.434 1584.98 534.725C1585.34 530.152 1533.35 371.889 1529.2 367.03C1529.34 366.378 1529.48 365.646 1529.41 364.977C1528.92 359.858 1520.39 336.142 1517.18 333.538C1515.43 348.012 1504.87 371.646 1499.87 386.305L1465.46 488.808C1462.88 496.351 1451.69 532.982 1448.46 536.771L1364.54 536.797C1365.54 536.005 1366.47 535.13 1367.19 534.067C1373.53 524.702 1387.24 481.067 1392.02 468.082L1438.32 339.933C1448.45 312.063 1459.3 284.327 1468.81 256.239C1470.17 252.218 1473.09 245.652 1472.28 241.499Z"/>
	<path fill="#282420" d="M1945.07 241.5C1945.85 241.385 1946.64 241.325 1947.43 241.27C1967.12 239.921 1987.48 240.94 2007.23 240.958C2036.4 240.985 2073.51 238.117 2101.64 244.983Q2103.96 245.528 2106.23 246.216Q2108.51 246.904 2110.74 247.732Q2112.97 248.561 2115.14 249.526Q2117.32 250.492 2119.43 251.591Q2121.54 252.69 2123.58 253.918Q2125.61 255.146 2127.57 256.498Q2129.53 257.851 2131.4 259.322Q2133.27 260.794 2135.04 262.379C2154.93 279.848 2164.2 306.715 2165.76 332.619C2167.36 359.088 2159.85 388.606 2142.06 408.612C2122.21 430.941 2094.8 436.79 2066.25 438.53C2050.37 439.442 2034.16 438.893 2018.23 439.19C2018.57 439.725 2018.87 440.255 2019.11 440.839C2021.09 445.635 2020.3 532.351 2018.42 536.647C1994.1 537.293 1969.67 536.776 1945.34 536.71C1946.51 534.524 1946.8 532.505 1946.87 530.041C1948.24 482.162 1945.86 434.195 1946.06 386.316L1945.67 280.858C1945.59 268.762 1947.76 253.179 1945.07 241.5ZM2018.85 303.5C2020.58 312.257 2021.34 370.032 2018.26 376.052C2018.18 376.219 2018.1 376.391 2018.02 376.56C2031.71 376.664 2064.68 378.967 2074.38 369.39C2074.94 368.839 2075.35 368.194 2075.71 367.5C2081.33 364.171 2084.19 358.6 2085.8 352.45C2088.77 341.147 2087.69 326.969 2081.64 316.81C2077.76 310.305 2072.38 306.222 2065 304.374C2053.75 301.561 2029.9 301.041 2018.85 303.5Z"/>
	<path fill="#282420" d="M1691.87 241.499C1693 241.234 1694.1 241.046 1695.26 240.975C1715.93 239.714 1737.06 240.783 1757.8 240.781C1784.61 240.777 1817 237.979 1843.1 243.693C1857.82 246.916 1872.95 253.718 1884.27 263.796C1903.23 280.677 1911.09 307.298 1912.43 331.916C1913.96 359.998 1908.99 386.843 1889.57 408.368C1868.72 431.483 1840.88 436.8 1811.25 438.411C1796.09 439.191 1780.85 438.924 1765.67 438.95C1766.22 439.753 1766.66 440.612 1766.89 441.561C1768.78 449.249 1768.03 532.269 1765.17 536.96C1740.88 538.006 1716.15 537.014 1691.81 536.985C1691.89 536.819 1691.97 536.651 1692.06 536.487C1692.16 536.302 1692.27 536.123 1692.37 535.937C1693.95 532.967 1693.6 529.191 1693.63 525.903C1694.28 469.891 1692.93 413.73 1692.95 357.711C1692.96 338.919 1695.18 252.264 1691.87 241.499ZM1765.84 302.499C1768.31 310.517 1769.18 370.332 1765.91 376.385C1765.82 376.548 1765.72 376.706 1765.63 376.867C1779.42 376.72 1812.34 378.593 1822.02 368.9C1822.71 368.213 1823.26 367.421 1823.58 366.5C1828.65 363.568 1831.64 358.804 1833.11 353.216C1835.88 342.657 1835.39 327.779 1829.74 318.17C1825.31 310.641 1817.72 305.996 1809.38 303.922C1801.24 301.899 1773.74 300.633 1765.84 302.499Z"/>
	<path fill="#282420" d="M297.47 240.73C320.731 239.028 347.631 240.801 371.308 240.92C391.348 292.954 407.766 346.297 429.365 397.796C449.412 345.913 467.412 293.223 486.313 240.9L560.265 240.895L611.21 536.538C586.589 537.956 561.348 536.845 536.657 536.861C529.559 495.912 522.709 451.919 517.769 410.727C513.691 397.539 514.744 383.484 509.683 370.268C495.638 409.143 479.826 447.754 464.439 486.138C457.68 502.998 450.235 519.581 444.302 536.76L412.97 536.77C407.674 519.189 399.289 501.919 392.663 484.735C382.578 458.577 372.558 432.536 361.586 406.729C356.851 395.593 352.504 383.896 346.572 373.342C344.71 391.501 341.057 409.456 338.022 427.445Q332.718 460.05 327.775 492.712C325.506 507.358 322.878 522.034 321.935 536.839C297.432 537.352 272.834 536.913 248.32 536.922C249.108 524.842 252.507 512.243 254.575 500.28C257.843 481.374 260.434 462.32 263.495 443.373Q279.265 341.848 297.47 240.73Z"/>
</svg>
